<svg id="svg" width="10240" height="18432" viewBox="0 0 10240 18432">
  <g id="Food Truck Stand" serif:id="Food Truck Stand">
    <path d="M4,0L12,8L20,0L24,4L16,12L24,20L20,24L12,16L4,24L0,20L8,12L0,4L4,0Z" transform="translate(5825.327346906494, 8010.275482437884) scale(2)"></path>
    <path d="M4,0L12,8L20,0L24,4L16,12L24,20L20,24L12,16L4,24L0,20L8,12L0,4L4,0Z" transform="translate(6166.035109161078, 6121.341149614237) scale(2)"></path>
    <path d="M4,0L12,8L20,0L24,4L16,12L24,20L20,24L12,16L4,24L0,20L8,12L0,4L4,0Z" transform="translate(5561.148643227484, 8003.0969383141655) scale(2)"></path>
    <path d="M4,0L12,8L20,0L24,4L16,12L24,20L20,24L12,16L4,24L0,20L8,12L0,4L4,0Z" transform="translate(6160.076301450152, 6212.702760110093) scale(2)"></path>
    <path d="M4,0L12,8L20,0L24,4L16,12L24,20L20,24L12,16L4,24L0,20L8,12L0,4L4,0Z" transform="translate(6877.554465889426, 7612.538890712723) scale(2)"></path>
    <path d="M4,0L12,8L20,0L24,4L16,12L24,20L20,24L12,16L4,24L0,20L8,12L0,4L4,0Z" transform="translate(5472.218513955228, 6934.723300234407) scale(2)"></path>
    <path d="M4,0L12,8L20,0L24,4L16,12L24,20L20,24L12,16L4,24L0,20L8,12L0,4L4,0Z" transform="translate(5861.338004905424, 6886.687040085099) scale(2)"></path>
    <path d="M4,0L12,8L20,0L24,4L16,12L24,20L20,24L12,16L4,24L0,20L8,12L0,4L4,0Z" transform="translate(5832.138378573867, 6866.480037605485) scale(2)"></path>
    <path d="M4,0L12,8L20,0L24,4L16,12L24,20L20,24L12,16L4,24L0,20L8,12L0,4L4,0Z" transform="translate(6713.216036461608, 7633.732508842191) scale(2)"></path>
    <path d="M4,0L12,8L20,0L24,4L16,12L24,20L20,24L12,16L4,24L0,20L8,12L0,4L4,0Z" transform="translate(5995.2858856297, 7670.91881306308) scale(2)"></path>
    <path d="M4,0L12,8L20,0L24,4L16,12L24,20L20,24L12,16L4,24L0,20L8,12L0,4L4,0Z" transform="translate(6623.982640403996, 7655.459957069457) scale(2)"></path>
    <path d="M4,0L12,8L20,0L24,4L16,12L24,20L20,24L12,16L4,24L0,20L8,12L0,4L4,0Z" transform="translate(5882.408636154085, 7504.183584463497) scale(2)"></path>
    <path d="M4,0L12,8L20,0L24,4L16,12L24,20L20,24L12,16L4,24L0,20L8,12L0,4L4,0Z" transform="translate(6678.413783547068, 7727.882802709766) scale(2)"></path>
    <path d="M4,0L12,8L20,0L24,4L16,12L24,20L20,24L12,16L4,24L0,20L8,12L0,4L4,0Z" transform="translate(6632.182498748248, 7494.816211773058) scale(2)"></path>
    <path d="M4,0L12,8L20,0L24,4L16,12L24,20L20,24L12,16L4,24L0,20L8,12L0,4L4,0Z" transform="translate(5854.210652694311, 7141.276746861297) scale(2)"></path>
    <path d="M4,0L12,8L20,0L24,4L16,12L24,20L20,24L12,16L4,24L0,20L8,12L0,4L4,0Z" transform="translate(6190.3293194823145, 6597.313577441762) scale(2)"></path>
    <path d="M4,0L12,8L20,0L24,4L16,12L24,20L20,24L12,16L4,24L0,20L8,12L0,4L4,0Z" transform="translate(6966.756859269884, 7485.413479879148) scale(2)"></path>
    <path d="M4,0L12,8L20,0L24,4L16,12L24,20L20,24L12,16L4,24L0,20L8,12L0,4L4,0Z" transform="translate(5706.745371807692, 7733.504290229264) scale(2)"></path>
    <path d="M4,0L12,8L20,0L24,4L16,12L24,20L20,24L12,16L4,24L0,20L8,12L0,4L4,0Z" transform="translate(6677.842215401495, 7662.015490803712) scale(2)"></path>
    <path d="M4,0L12,8L20,0L24,4L16,12L24,20L20,24L12,16L4,24L0,20L8,12L0,4L4,0Z" transform="translate(5546.753144694284, 6922.851056539556) scale(2)"></path>
    <path d="M4,0L12,8L20,0L24,4L16,12L24,20L20,24L12,16L4,24L0,20L8,12L0,4L4,0Z" transform="translate(5532.632008195451, 7868.774834385031) scale(2)"></path>
    <path d="M4,0L12,8L20,0L24,4L16,12L24,20L20,24L12,16L4,24L0,20L8,12L0,4L4,0Z" transform="translate(6596.456459308178, 6245.578683558511) scale(2)"></path>
    <path d="M4,0L12,8L20,0L24,4L16,12L24,20L20,24L12,16L4,24L0,20L8,12L0,4L4,0Z" transform="translate(6574.626612133539, 6043.164767040024) scale(2)"></path>
    <path d="M4,0L12,8L20,0L24,4L16,12L24,20L20,24L12,16L4,24L0,20L8,12L0,4L4,0Z" transform="translate(6813.074958939301, 7450.648811723398) scale(2)"></path>
    <path d="M4,0L12,8L20,0L24,4L16,12L24,20L20,24L12,16L4,24L0,20L8,12L0,4L4,0Z" transform="translate(6819.778763303396, 7701.697278629983) scale(2)"></path>
    <path d="M4,0L12,8L20,0L24,4L16,12L24,20L20,24L12,16L4,24L0,20L8,12L0,4L4,0Z" transform="translate(5825.000303632559, 5732.272569343381) scale(2)"></path>
    <path d="M4,0L12,8L20,0L24,4L16,12L24,20L20,24L12,16L4,24L0,20L8,12L0,4L4,0Z" transform="translate(5760.902852225119, 5637.639137333347) scale(2)"></path>
    <path d="M4,0L12,8L20,0L24,4L16,12L24,20L20,24L12,16L4,24L0,20L8,12L0,4L4,0Z" transform="translate(6558.775852616454, 7129.566592258368) scale(2)"></path>
    <path d="M4,0L12,8L20,0L24,4L16,12L24,20L20,24L12,16L4,24L0,20L8,12L0,4L4,0Z" transform="translate(4678.61922089781, 4422.859309322558) scale(2)"></path>
    <path d="M4,0L12,8L20,0L24,4L16,12L24,20L20,24L12,16L4,24L0,20L8,12L0,4L4,0Z" transform="translate(5950.390280061824, 5510.239614444827) scale(2)"></path>
    <path d="M4,0L12,8L20,0L24,4L16,12L24,20L20,24L12,16L4,24L0,20L8,12L0,4L4,0Z" transform="translate(6321.855961084122, 5508.308313528087) scale(2)"></path>
    <path d="M4,0L12,8L20,0L24,4L16,12L24,20L20,24L12,16L4,24L0,20L8,12L0,4L4,0Z" transform="translate(6512.758556217823, 7958.117215325356) scale(2)"></path>
    <path d="M4,0L12,8L20,0L24,4L16,12L24,20L20,24L12,16L4,24L0,20L8,12L0,4L4,0Z" transform="translate(6962.99481265406, 7745.422532179938) scale(2)"></path>
    <path d="M4,0L12,8L20,0L24,4L16,12L24,20L20,24L12,16L4,24L0,20L8,12L0,4L4,0Z" transform="translate(6921.015556625086, 7336.796244536702) scale(2)"></path>
    <path d="M4,0L12,8L20,0L24,4L16,12L24,20L20,24L12,16L4,24L0,20L8,12L0,4L4,0Z" transform="translate(6847.009370007806, 7819.268194616748) scale(2)"></path>
    <path d="M4,0L12,8L20,0L24,4L16,12L24,20L20,24L12,16L4,24L0,20L8,12L0,4L4,0Z" transform="translate(6446.641968073879, 7089.366932912827) scale(2)"></path>
    <path d="M4,0L12,8L20,0L24,4L16,12L24,20L20,24L12,16L4,24L0,20L8,12L0,4L4,0Z" transform="translate(6270.987328532512, 5764.403133299846) scale(2)"></path>
    <path d="M4,0L12,8L20,0L24,4L16,12L24,20L20,24L12,16L4,24L0,20L8,12L0,4L4,0Z" transform="translate(6652.829115944188, 7085.689262842181) scale(2)"></path>
    <path d="M4,0L12,8L20,0L24,4L16,12L24,20L20,24L12,16L4,24L0,20L8,12L0,4L4,0Z" transform="translate(6280.888604451753, 7663.206751754673) scale(2)"></path>
    <path d="M4,0L12,8L20,0L24,4L16,12L24,20L20,24L12,16L4,24L0,20L8,12L0,4L4,0Z" transform="translate(6664.954659093072, 7016.795453452701) scale(2)"></path>
  </g>
  <g id="Fresh Moves Mobile Market" serif:id="Fresh Moves Mobile Market">
    <path d="M0,9L9,9L9,0L15,0L15,9L24,9L24,15L15,15L15,24L9,24L9,15L0,15L0,9Z" transform="translate(3995.9465728126715, 9725.41275920077) scale(2)"></path>
    <path d="M0,9L9,9L9,0L15,0L15,9L24,9L24,15L15,15L15,24L9,24L9,15L0,15L0,9Z" transform="translate(7013.5322060804, 10070.925372019308) scale(2)"></path>
    <path d="M0,9L9,9L9,0L15,0L15,9L24,9L24,15L15,15L15,24L9,24L9,15L0,15L0,9Z" transform="translate(8544.507554474896, 12387.97047814543) scale(2)"></path>
    <path d="M0,9L9,9L9,0L15,0L15,9L24,9L24,15L15,15L15,24L9,24L9,15L0,15L0,9Z" transform="translate(8686.346898495656, 12335.254912437087) scale(2)"></path>
    <path d="M0,9L9,9L9,0L15,0L15,9L24,9L24,15L15,15L15,24L9,24L9,15L0,15L0,9Z" transform="translate(6205.2339146020695, 11687.959321135924) scale(2)"></path>
    <path d="M0,9L9,9L9,0L15,0L15,9L24,9L24,15L15,15L15,24L9,24L9,15L0,15L0,9Z" transform="translate(6390.552764482302, 10337.355405333301) scale(2)"></path>
    <path d="M0,9L9,9L9,0L15,0L15,9L24,9L24,15L15,15L15,24L9,24L9,15L0,15L0,9Z" transform="translate(6472.458806098074, 10786.852238447347) scale(2)"></path>
    <path d="M0,9L9,9L9,0L15,0L15,9L24,9L24,15L15,15L15,24L9,24L9,15L0,15L0,9Z" transform="translate(7271.765388910217, 9632.060394260247) scale(2)"></path>
    <path d="M0,9L9,9L9,0L15,0L15,9L24,9L24,15L15,15L15,24L9,24L9,15L0,15L0,9Z" transform="translate(7432.27626982595, 9606.90904865235) scale(2)"></path>
    <path d="M0,9L9,9L9,0L15,0L15,9L24,9L24,15L15,15L15,24L9,24L9,15L0,15L0,9Z" transform="translate(7752.9597994475835, 12299.559953026324) scale(2)"></path>
    <path d="M0,9L9,9L9,0L15,0L15,9L24,9L24,15L15,15L15,24L9,24L9,15L0,15L0,9Z" transform="translate(4728.201125813406, 8172.200294804019) scale(2)"></path>
    <path d="M0,9L9,9L9,0L15,0L15,9L24,9L24,15L15,15L15,24L9,24L9,15L0,15L0,9Z" transform="translate(3473.2272236674844, 7424.648219406671) scale(2)"></path>
    <path d="M0,9L9,9L9,0L15,0L15,9L24,9L24,15L15,15L15,24L9,24L9,15L0,15L0,9Z" transform="translate(6399.473143682092, 9863.3900034423) scale(2)"></path>
    <path d="M0,9L9,9L9,0L15,0L15,9L24,9L24,15L15,15L15,24L9,24L9,15L0,15L0,9Z" transform="translate(4312.144970831074, 6695.582123313035) scale(2)"></path>
  </g>
  <g id="Distribution Center" serif:id="Distribution Center">
    <path d="M24,0L24,24L0,24L0,0L24,0ZM12,3L3,3L3,21L12,21L12,3Z" transform="translate(-8307.708585455519, 8195.343988648508) scale(2)"></path>
    <path d="M24,0L24,24L0,24L0,0L24,0ZM12,3L3,3L3,21L12,21L12,3Z" transform="translate(-4088.7205099378953, 14022.631772457235) scale(2)"></path>
    <path d="M24,0L24,24L0,24L0,0L24,0ZM12,3L3,3L3,21L12,21L12,3Z" transform="translate(1457.2054404262392, 6503.678338873703) scale(2)"></path>
    <path d="M24,0L24,24L0,24L0,0L24,0ZM12,3L3,3L3,21L12,21L12,3Z" transform="translate(4784.322031390528, 3459.4214608980215) scale(2)"></path>
    <path d="M24,0L24,24L0,24L0,0L24,0ZM12,3L3,3L3,21L12,21L12,3Z" transform="translate(-8936.691124303099, 21226.379498438568) scale(2)"></path>
    <path d="M24,0L24,24L0,24L0,0L24,0ZM12,3L3,3L3,21L12,21L12,3Z" transform="translate(7436.947184386438, 13188.148000219238) scale(2)"></path>
  </g>
  <g id="Grocery Store" serif:id="Grocery Store">
    <path d="M12,0A12,12,0,1,1,0,12,12,12,0,0,1,12,0Z" transform="translate(6698.493261551455, 6885.594033911728) scale(2)"></path>
    <path d="M12,0A12,12,0,1,1,0,12,12,12,0,0,1,12,0Z" transform="translate(5561.543519425867, 2660.435199775174) scale(2)"></path>
    <path d="M12,0A12,12,0,1,1,0,12,12,12,0,0,1,12,0Z" transform="translate(5934.267955744596, 13890.030065877563) scale(2)"></path>
    <path d="M12,0A12,12,0,1,1,0,12,12,12,0,0,1,12,0Z" transform="translate(4691.850836987531, 14085.19409403873) scale(2)"></path>
    <path d="M12,0A12,12,0,1,1,0,12,12,12,0,0,1,12,0Z" transform="translate(5839.430068281847, 8080.131187326101) scale(2)"></path>
    <path d="M12,0A12,12,0,1,1,0,12,12,12,0,0,1,12,0Z" transform="translate(6827.154370031447, 8063.0242169563835) scale(2)"></path>
    <path d="M12,0A12,12,0,1,1,0,12,12,12,0,0,1,12,0Z" transform="translate(6508.600700991877, 8134.509261422414) scale(2)"></path>
    <path d="M12,0A12,12,0,1,1,0,12,12,12,0,0,1,12,0Z" transform="translate(5820.215401786586, 6810.982985531582) scale(2)"></path>
    <path d="M12,0A12,12,0,1,1,0,12,12,12,0,0,1,12,0Z" transform="translate(7842.018834585862, 12629.699761010268) scale(2)"></path>
    <path d="M12,0A12,12,0,1,1,0,12,12,12,0,0,1,12,0Z" transform="translate(5702.447188676476, 3335.1826753006476) scale(2)"></path>
    <path d="M12,0A12,12,0,1,1,0,12,12,12,0,0,1,12,0Z" transform="translate(4920.797446129141, 3225.612952515773) scale(2)"></path>
    <path d="M12,0A12,12,0,1,1,0,12,12,12,0,0,1,12,0Z" transform="translate(3095.4997012515896, 6193.094986609038) scale(2)"></path>
    <path d="M12,0A12,12,0,1,1,0,12,12,12,0,0,1,12,0Z" transform="translate(5706.864487355259, 6161.36244837622) scale(2)"></path>
    <path d="M12,0A12,12,0,1,1,0,12,12,12,0,0,1,12,0Z" transform="translate(5805.928529173774, 5907.5052716463115) scale(2)"></path>
    <path d="M12,0A12,12,0,1,1,0,12,12,12,0,0,1,12,0Z" transform="translate(5110.883482039925, 13057.12056047564) scale(2)"></path>
    <path d="M12,0A12,12,0,1,1,0,12,12,12,0,0,1,12,0Z" transform="translate(5054.16723182832, 13802.980713634162) scale(2)"></path>
    <path d="M12,0A12,12,0,1,1,0,12,12,12,0,0,1,12,0Z" transform="translate(5338.764811236309, 5651.880134744907) scale(2)"></path>
    <path d="M12,0A12,12,0,1,1,0,12,12,12,0,0,1,12,0Z" transform="translate(6363.212133241055, 5548.919140956047) scale(2)"></path>
    <path d="M12,0A12,12,0,1,1,0,12,12,12,0,0,1,12,0Z" transform="translate(4906.603814649153, 5595.993818519949) scale(2)"></path>
    <path d="M12,0A12,12,0,1,1,0,12,12,12,0,0,1,12,0Z" transform="translate(5938.923019312477, 5507.235959632757) scale(2)"></path>
    <path d="M12,0A12,12,0,1,1,0,12,12,12,0,0,1,12,0Z" transform="translate(5510.151337912206, 9273.801570886466) scale(2)"></path>
    <path d="M12,0A12,12,0,1,1,0,12,12,12,0,0,1,12,0Z" transform="translate(6390.394254556237, 7366.557428949796) scale(2)"></path>
    <path d="M12,0A12,12,0,1,1,0,12,12,12,0,0,1,12,0Z" transform="translate(4411.304584811263, 4626.676016186165) scale(2)"></path>
    <path d="M12,0A12,12,0,1,1,0,12,12,12,0,0,1,12,0Z" transform="translate(6514.5145198558575, 6861.024081224323) scale(2)"></path>
    <path d="M12,0A12,12,0,1,1,0,12,12,12,0,0,1,12,0Z" transform="translate(5519.235355300473, 5184.594180256861) scale(2)"></path>
    <path d="M12,0A12,12,0,1,1,0,12,12,12,0,0,1,12,0Z" transform="translate(6193.24986487255, 5095.395113609955) scale(2)"></path>
    <path d="M12,0A12,12,0,1,1,0,12,12,12,0,0,1,12,0Z" transform="translate(7093.171322648766, 9108.861838829249) scale(2)"></path>
    <path d="M12,0A12,12,0,1,1,0,12,12,12,0,0,1,12,0Z" transform="translate(4237.568381582314, 13064.417698741881) scale(2)"></path>
    <path d="M12,0A12,12,0,1,1,0,12,12,12,0,0,1,12,0Z" transform="translate(4061.398584780572, 5285.649532019869) scale(2)"></path>
    <path d="M12,0A12,12,0,1,1,0,12,12,12,0,0,1,12,0Z" transform="translate(3553.579401800788, 4920.079176367972) scale(2)"></path>
    <path d="M12,0A12,12,0,1,1,0,12,12,12,0,0,1,12,0Z" transform="translate(1889.8662094865354, 4962.059625330674) scale(2)"></path>
    <path d="M12,0A12,12,0,1,1,0,12,12,12,0,0,1,12,0Z" transform="translate(4523.751060251949, 10271.309732843467) scale(2)"></path>
    <path d="M12,0A12,12,0,1,1,0,12,12,12,0,0,1,12,0Z" transform="translate(6056.609646431366, 4535.045613161538) scale(2)"></path>
    <path d="M12,0A12,12,0,1,1,0,12,12,12,0,0,1,12,0Z" transform="translate(6772.72718963636, 7254.8786704910635) scale(2)"></path>
    <path d="M12,0A12,12,0,1,1,0,12,12,12,0,0,1,12,0Z" transform="translate(5826.891466913785, 4422.496955715713) scale(2)"></path>
    <path d="M12,0A12,12,0,1,1,0,12,12,12,0,0,1,12,0Z" transform="translate(3498.4832162763005, 3542.6942624665276) scale(2)"></path>
    <path d="M12,0A12,12,0,1,1,0,12,12,12,0,0,1,12,0Z" transform="translate(7272.9588754134065, 10631.948574812968) scale(2)"></path>
    <path d="M12,0A12,12,0,1,1,0,12,12,12,0,0,1,12,0Z" transform="translate(3467.6973251686727, 10336.599093875664) scale(2)"></path>
    <path d="M12,0A12,12,0,1,1,0,12,12,12,0,0,1,12,0Z" transform="translate(3061.191626342737, 5324.103448038388) scale(2)"></path>
    <path d="M12,0A12,12,0,1,1,0,12,12,12,0,0,1,12,0Z" transform="translate(2519.7030702154007, 4661.506396135788) scale(2)"></path>
    <path d="M12,0A12,12,0,1,1,0,12,12,12,0,0,1,12,0Z" transform="translate(7726.6469185955475, 11447.87940430006) scale(2)"></path>
    <path d="M12,0A12,12,0,1,1,0,12,12,12,0,0,1,12,0Z" transform="translate(2444.3479175054426, 3109.559666056684) scale(2)"></path>
    <path d="M12,0A12,12,0,1,1,0,12,12,12,0,0,1,12,0Z" transform="translate(4119.247714758501, 11792.462664603801) scale(2)"></path>
    <path d="M12,0A12,12,0,1,1,0,12,12,12,0,0,1,12,0Z" transform="translate(1779.1213847238573, 6792.446001359204) scale(2)"></path>
    <path d="M12,0A12,12,0,1,1,0,12,12,12,0,0,1,12,0Z" transform="translate(6789.128304941645, 12172.401999209256) scale(2)"></path>
    <path d="M12,0A12,12,0,1,1,0,12,12,12,0,0,1,12,0Z" transform="translate(3269.6298482678453, 12280.231924019723) scale(2)"></path>
    <path d="M12,0A12,12,0,1,1,0,12,12,12,0,0,1,12,0Z" transform="translate(5961.368491068227, 12553.13926274154) scale(2)"></path>
    <path d="M12,0A12,12,0,1,1,0,12,12,12,0,0,1,12,0Z" transform="translate(4592.674905809362, 12610.699665147034) scale(2)"></path>
    <path d="M12,0A12,12,0,1,1,0,12,12,12,0,0,1,12,0Z" transform="translate(6858.17522879428, 7999.07881856804) scale(2)"></path>
    <path d="M12,0A12,12,0,1,1,0,12,12,12,0,0,1,12,0Z" transform="translate(5572.939683811172, 2635.7726247494647) scale(2)"></path>
    <path d="M12,0A12,12,0,1,1,0,12,12,12,0,0,1,12,0Z" transform="translate(7709.552555465917, 10245.203062916331) scale(2)"></path>
    <path d="M12,0A12,12,0,1,1,0,12,12,12,0,0,1,12,0Z" transform="translate(6157.36857894601, 6544.495063256315) scale(2)"></path>
    <path d="M12,0A12,12,0,1,1,0,12,12,12,0,0,1,12,0Z" transform="translate(2023.566068796891, 3482.1032947047547) scale(2)"></path>
    <path d="M12,0A12,12,0,1,1,0,12,12,12,0,0,1,12,0Z" transform="translate(1160.2715929091053, 9598.391861410952) scale(2)"></path>
    <path d="M12,0A12,12,0,1,1,0,12,12,12,0,0,1,12,0Z" transform="translate(5687.157973883161, 5450.337055953504) scale(2)"></path>
    <path d="M12,0A12,12,0,1,1,0,12,12,12,0,0,1,12,0Z" transform="translate(6826.36461763435, 7215.038235619284) scale(2)"></path>
    <path d="M12,0A12,12,0,1,1,0,12,12,12,0,0,1,12,0Z" transform="translate(2659.823747051122, 7314.310294458708) scale(2)"></path>
    <path d="M12,0A12,12,0,1,1,0,12,12,12,0,0,1,12,0Z" transform="translate(6358.926537662849, 5996.224016370511) scale(2)"></path>
    <path d="M12,0A12,12,0,1,1,0,12,12,12,0,0,1,12,0Z" transform="translate(6343.98814263271, 7571.568838810779) scale(2)"></path>
    <path d="M12,0A12,12,0,1,1,0,12,12,12,0,0,1,12,0Z" transform="translate(6540.792202180398, 7995.447459666547) scale(2)"></path>
    <path d="M12,0A12,12,0,1,1,0,12,12,12,0,0,1,12,0Z" transform="translate(6211.947043079249, 6742.038797099874) scale(2)"></path>
    <path d="M12,0A12,12,0,1,1,0,12,12,12,0,0,1,12,0Z" transform="translate(6962.892480510508, 7290.072029874193) scale(2)"></path>
    <path d="M12,0A12,12,0,1,1,0,12,12,12,0,0,1,12,0Z" transform="translate(6771.237662535726, 7123.048295207566) scale(2)"></path>
    <path d="M12,0A12,12,0,1,1,0,12,12,12,0,0,1,12,0Z" transform="translate(5849.173766686431, 5762.432405306782) scale(2)"></path>
    <path d="M12,0A12,12,0,1,1,0,12,12,12,0,0,1,12,0Z" transform="translate(6279.8941877678835, 5501.146666722665) scale(2)"></path>
    <path d="M12,0A12,12,0,1,1,0,12,12,12,0,0,1,12,0Z" transform="translate(7716.826296255788, 10086.315387085975) scale(2)"></path>
    <path d="M12,0A12,12,0,1,1,0,12,12,12,0,0,1,12,0Z" transform="translate(6044.439347538885, 4161.33325332031) scale(2)"></path>
    <path d="M12,0A12,12,0,1,1,0,12,12,12,0,0,1,12,0Z" transform="translate(3973.3230104929503, 4177.22612006771) scale(2)"></path>
    <path d="M12,0A12,12,0,1,1,0,12,12,12,0,0,1,12,0Z" transform="translate(7008.168043695568, 7474.556326944792) scale(2)"></path>
    <path d="M12,0A12,12,0,1,1,0,12,12,12,0,0,1,12,0Z" transform="translate(6748.533446635861, 8286.228406354741) scale(2)"></path>
    <path d="M12,0A12,12,0,1,1,0,12,12,12,0,0,1,12,0Z" transform="translate(6321.209333826188, 7612.078595241397) scale(2)"></path>
    <path d="M12,0A12,12,0,1,1,0,12,12,12,0,0,1,12,0Z" transform="translate(6366.939447535087, 6765.047312396874) scale(2)"></path>
    <path d="M12,0A12,12,0,1,1,0,12,12,12,0,0,1,12,0Z" transform="translate(5828.488221317365, 6358.892101121234) scale(2)"></path>
    <path d="M12,0A12,12,0,1,1,0,12,12,12,0,0,1,12,0Z" transform="translate(5610.861085729232, 7153.572988084013) scale(2)"></path>
    <path d="M12,0A12,12,0,1,1,0,12,12,12,0,0,1,12,0Z" transform="translate(7064.439067496747, 9373.151545138768) scale(2)"></path>
    <path d="M12,0A12,12,0,1,1,0,12,12,12,0,0,1,12,0Z" transform="translate(6397.424635988896, 5842.822962425273) scale(2)"></path>
    <path d="M12,0A12,12,0,1,1,0,12,12,12,0,0,1,12,0Z" transform="translate(5956.121346305127, 9016.690095787559) scale(2)"></path>
    <path d="M12,0A12,12,0,1,1,0,12,12,12,0,0,1,12,0Z" transform="translate(5342.014264723295, 5685.6403511925155) scale(2)"></path>
    <path d="M12,0A12,12,0,1,1,0,12,12,12,0,0,1,12,0Z" transform="translate(6628.898079836122, 6900.660809534543) scale(2)"></path>
    <path d="M12,0A12,12,0,1,1,0,12,12,12,0,0,1,12,0Z" transform="translate(6153.275060101898, 6557.842380269657) scale(2)"></path>
    <path d="M12,0A12,12,0,1,1,0,12,12,12,0,0,1,12,0Z" transform="translate(5803.979789492923, 8528.34194675779) scale(2)"></path>
    <path d="M12,0A12,12,0,1,1,0,12,12,12,0,0,1,12,0Z" transform="translate(4911.091044177554, 7115.52585936173) scale(2)"></path>
    <path d="M12,0A12,12,0,1,1,0,12,12,12,0,0,1,12,0Z" transform="translate(5534.13528836319, 6594.33432986748) scale(2)"></path>
    <path d="M12,0A12,12,0,1,1,0,12,12,12,0,0,1,12,0Z" transform="translate(5695.8690267391385, 6118.696719275928) scale(2)"></path>
    <path d="M12,0A12,12,0,1,1,0,12,12,12,0,0,1,12,0Z" transform="translate(4831.850067247498, 5767.185558405619) scale(2)"></path>
    <path d="M12,0A12,12,0,1,1,0,12,12,12,0,0,1,12,0Z" transform="translate(5972.809178094441, 9848.06945512925) scale(2)"></path>
    <path d="M12,0A12,12,0,1,1,0,12,12,12,0,0,1,12,0Z" transform="translate(4254.363440674574, 6789.185444723816) scale(2)"></path>
    <path d="M12,0A12,12,0,1,1,0,12,12,12,0,0,1,12,0Z" transform="translate(4976.317878809036, 8945.636871681992) scale(2)"></path>
    <path d="M12,0A12,12,0,1,1,0,12,12,12,0,0,1,12,0Z" transform="translate(7313.367251452882, 10940.09620991373) scale(2)"></path>
    <path d="M12,0A12,12,0,1,1,0,12,12,12,0,0,1,12,0Z" transform="translate(4974.44606306303, 10041.73149942794) scale(2)"></path>
    <path d="M12,0A12,12,0,1,1,0,12,12,12,0,0,1,12,0Z" transform="translate(5504.207215679461, 10650.031834693296) scale(2)"></path>
    <path d="M12,0A12,12,0,1,1,0,12,12,12,0,0,1,12,0Z" transform="translate(4437.31886093465, 6116.421839550625) scale(2)"></path>
    <path d="M12,0A12,12,0,1,1,0,12,12,12,0,0,1,12,0Z" transform="translate(6113.272282991332, 5018.271371392798) scale(2)"></path>
    <path d="M12,0A12,12,0,1,1,0,12,12,12,0,0,1,12,0Z" transform="translate(3594.9971131056627, 8038.898601161554) scale(2)"></path>
    <path d="M12,0A12,12,0,1,1,0,12,12,12,0,0,1,12,0Z" transform="translate(7723.017507491046, 11628.023593834225) scale(2)"></path>
    <path d="M12,0A12,12,0,1,1,0,12,12,12,0,0,1,12,0Z" transform="translate(4565.366908964736, 9828.24013900857) scale(2)"></path>
    <path d="M12,0A12,12,0,1,1,0,12,12,12,0,0,1,12,0Z" transform="translate(4495.878954552347, 7808.256462509959) scale(2)"></path>
    <path d="M12,0A12,12,0,1,1,0,12,12,12,0,0,1,12,0Z" transform="translate(7735.357971451526, 11299.955897754238) scale(2)"></path>
    <path d="M12,0A12,12,0,1,1,0,12,12,12,0,0,1,12,0Z" transform="translate(4310.769664118613, 10823.323222853796) scale(2)"></path>
    <path d="M12,0A12,12,0,1,1,0,12,12,12,0,0,1,12,0Z" transform="translate(8503.860714237602, 11857.495436726233) scale(2)"></path>
    <path d="M12,0A12,12,0,1,1,0,12,12,12,0,0,1,12,0Z" transform="translate(6438.245604042175, 13308.04886867305) scale(2)"></path>
    <path d="M12,0A12,12,0,1,1,0,12,12,12,0,0,1,12,0Z" transform="translate(6355.694566888266, 10746.988022164442) scale(2)"></path>
    <path d="M12,0A12,12,0,1,1,0,12,12,12,0,0,1,12,0Z" transform="translate(7303.108395787923, 9851.02648585906) scale(2)"></path>
    <path d="M12,0A12,12,0,1,1,0,12,12,12,0,0,1,12,0Z" transform="translate(3995.887364693249, 6754.076571933062) scale(2)"></path>
    <path d="M12,0A12,12,0,1,1,0,12,12,12,0,0,1,12,0Z" transform="translate(5936.375205351512, 11223.351591623004) scale(2)"></path>
    <path d="M12,0A12,12,0,1,1,0,12,12,12,0,0,1,12,0Z" transform="translate(6775.918367415332, 12091.307387154895) scale(2)"></path>
    <path d="M12,0A12,12,0,1,1,0,12,12,12,0,0,1,12,0Z" transform="translate(4147.448495452168, 8964.708937605488) scale(2)"></path>
    <path d="M12,0A12,12,0,1,1,0,12,12,12,0,0,1,12,0Z" transform="translate(4944.4923490675765, 2865.2463451214558) scale(2)"></path>
    <path d="M12,0A12,12,0,1,1,0,12,12,12,0,0,1,12,0Z" transform="translate(4610.901216293911, 14136.546296478278) scale(2)"></path>
    <path d="M12,0A12,12,0,1,1,0,12,12,12,0,0,1,12,0Z" transform="translate(7596.971812793449, 15653.018045199815) scale(2)"></path>
    <path d="M12,0A12,12,0,1,1,0,12,12,12,0,0,1,12,0Z" transform="translate(1249.9453202170873, 6712.872147965825) scale(2)"></path>
    <path d="M12,0A12,12,0,1,1,0,12,12,12,0,0,1,12,0Z" transform="translate(3717.000804685284, 10272.81484583925) scale(2)"></path>
    <path d="M12,0A12,12,0,1,1,0,12,12,12,0,0,1,12,0Z" transform="translate(3044.170457502651, 4003.371487958782) scale(2)"></path>
    <path d="M12,0A12,12,0,1,1,0,12,12,12,0,0,1,12,0Z" transform="translate(6974.915924618195, 11214.299009716935) scale(2)"></path>
    <path d="M12,0A12,12,0,1,1,0,12,12,12,0,0,1,12,0Z" transform="translate(6165.815992498478, 4961.8061655537695) scale(2)"></path>
    <path d="M12,0A12,12,0,1,1,0,12,12,12,0,0,1,12,0Z" transform="translate(4500.706514216416, 8297.853135625524) scale(2)"></path>
    <path d="M12,0A12,12,0,1,1,0,12,12,12,0,0,1,12,0Z" transform="translate(2835.1308302692405, 12323.648645051253) scale(2)"></path>
  </g>
  <g id="Cold Storage" serif:id="Cold Storage">
    <path d="M10,8.536L10,0L14,0L14,8.536L21.392,4.268L23.392,7.732L16,12L23.392,16.268L21.392,19.732L14,15.464L14,24L10,24L10,15.464L2.608,19.732L0.608,16.268L8,12L0.608,7.732L2.608,4.268L10,8.536Z" transform="translate(4820.076043170511, 10106.13531580785) scale(2)"></path>
    <path d="M10,8.536L10,0L14,0L14,8.536L21.392,4.268L23.392,7.732L16,12L23.392,16.268L21.392,19.732L14,15.464L14,24L10,24L10,15.464L2.608,19.732L0.608,16.268L8,12L0.608,7.732L2.608,4.268L10,8.536Z" transform="translate(5951.321758980972, 9620.590869988555) scale(2)"></path>
    <path d="M10,8.536L10,0L14,0L14,8.536L21.392,4.268L23.392,7.732L16,12L23.392,16.268L21.392,19.732L14,15.464L14,24L10,24L10,15.464L2.608,19.732L0.608,16.268L8,12L0.608,7.732L2.608,4.268L10,8.536Z" transform="translate(5937.100155161071, 9625.087434177405) scale(2)"></path>
    <path d="M10,8.536L10,0L14,0L14,8.536L21.392,4.268L23.392,7.732L16,12L23.392,16.268L21.392,19.732L14,15.464L14,24L10,24L10,15.464L2.608,19.732L0.608,16.268L8,12L0.608,7.732L2.608,4.268L10,8.536Z" transform="translate(6068.651738765883, 9790.984680947173) scale(2)"></path>
    <path d="M10,8.536L10,0L14,0L14,8.536L21.392,4.268L23.392,7.732L16,12L23.392,16.268L21.392,19.732L14,15.464L14,24L10,24L10,15.464L2.608,19.732L0.608,16.268L8,12L0.608,7.732L2.608,4.268L10,8.536Z" transform="translate(7747.309153681407, 12660.218195620768) scale(2)"></path>
    <path d="M10,8.536L10,0L14,0L14,8.536L21.392,4.268L23.392,7.732L16,12L23.392,16.268L21.392,19.732L14,15.464L14,24L10,24L10,15.464L2.608,19.732L0.608,16.268L8,12L0.608,7.732L2.608,4.268L10,8.536Z" transform="translate(5500.890162371044, 8769.685720431316) scale(2)"></path>
    <path d="M10,8.536L10,0L14,0L14,8.536L21.392,4.268L23.392,7.732L16,12L23.392,16.268L21.392,19.732L14,15.464L14,24L10,24L10,15.464L2.608,19.732L0.608,16.268L8,12L0.608,7.732L2.608,4.268L10,8.536Z" transform="translate(4242.848160741703, 9234.800056584716) scale(2)"></path>
    <path d="M10,8.536L10,0L14,0L14,8.536L21.392,4.268L23.392,7.732L16,12L23.392,16.268L21.392,19.732L14,15.464L14,24L10,24L10,15.464L2.608,19.732L0.608,16.268L8,12L0.608,7.732L2.608,4.268L10,8.536Z" transform="translate(5293.48691702273, 9961.991801983117) scale(2)"></path>
    <path d="M10,8.536L10,0L14,0L14,8.536L21.392,4.268L23.392,7.732L16,12L23.392,16.268L21.392,19.732L14,15.464L14,24L10,24L10,15.464L2.608,19.732L0.608,16.268L8,12L0.608,7.732L2.608,4.268L10,8.536Z" transform="translate(6215.9214463761255, 7424.227351011891) scale(2)"></path>
    <path d="M10,8.536L10,0L14,0L14,8.536L21.392,4.268L23.392,7.732L16,12L23.392,16.268L21.392,19.732L14,15.464L14,24L10,24L10,15.464L2.608,19.732L0.608,16.268L8,12L0.608,7.732L2.608,4.268L10,8.536Z" transform="translate(5497.3493303429905, 8762.776594662808) scale(2)"></path>
    <path d="M10,8.536L10,0L14,0L14,8.536L21.392,4.268L23.392,7.732L16,12L23.392,16.268L21.392,19.732L14,15.464L14,24L10,24L10,15.464L2.608,19.732L0.608,16.268L8,12L0.608,7.732L2.608,4.268L10,8.536Z" transform="translate(5641.078205925179, 9424.616396368001) scale(2)"></path>
    <path d="M10,8.536L10,0L14,0L14,8.536L21.392,4.268L23.392,7.732L16,12L23.392,16.268L21.392,19.732L14,15.464L14,24L10,24L10,15.464L2.608,19.732L0.608,16.268L8,12L0.608,7.732L2.608,4.268L10,8.536Z" transform="translate(2864.5647249476124, 10977.376701039355) scale(2)"></path>
    <path d="M10,8.536L10,0L14,0L14,8.536L21.392,4.268L23.392,7.732L16,12L23.392,16.268L21.392,19.732L14,15.464L14,24L10,24L10,15.464L2.608,19.732L0.608,16.268L8,12L0.608,7.732L2.608,4.268L10,8.536Z" transform="translate(4273.990699183309, 9586.013949815615) scale(2)"></path>
    <path d="M10,8.536L10,0L14,0L14,8.536L21.392,4.268L23.392,7.732L16,12L23.392,16.268L21.392,19.732L14,15.464L14,24L10,24L10,15.464L2.608,19.732L0.608,16.268L8,12L0.608,7.732L2.608,4.268L10,8.536Z" transform="translate(5648.3603384170565, 8689.971056050941) scale(2)"></path>
    <path d="M10,8.536L10,0L14,0L14,8.536L21.392,4.268L23.392,7.732L16,12L23.392,16.268L21.392,19.732L14,15.464L14,24L10,24L10,15.464L2.608,19.732L0.608,16.268L8,12L0.608,7.732L2.608,4.268L10,8.536Z" transform="translate(5823.7212683898315, 8608.954672322789) scale(2)"></path>
    <path d="M10,8.536L10,0L14,0L14,8.536L21.392,4.268L23.392,7.732L16,12L23.392,16.268L21.392,19.732L14,15.464L14,24L10,24L10,15.464L2.608,19.732L0.608,16.268L8,12L0.608,7.732L2.608,4.268L10,8.536Z" transform="translate(1342.438193183492, 11153.393564084123) scale(2)"></path>
    <path d="M10,8.536L10,0L14,0L14,8.536L21.392,4.268L23.392,7.732L16,12L23.392,16.268L21.392,19.732L14,15.464L14,24L10,24L10,15.464L2.608,19.732L0.608,16.268L8,12L0.608,7.732L2.608,4.268L10,8.536Z" transform="translate(4256.083739579411, 9691.34682645449) scale(2)"></path>
    <path d="M10,8.536L10,0L14,0L14,8.536L21.392,4.268L23.392,7.732L16,12L23.392,16.268L21.392,19.732L14,15.464L14,24L10,24L10,15.464L2.608,19.732L0.608,16.268L8,12L0.608,7.732L2.608,4.268L10,8.536Z" transform="translate(2499.388158350104, 10388.251693087928) scale(2)"></path>
  </g>
  <g id="Composting Site" serif:id="Composting Site">
    <path d="M12,0C18.623,0 24,5.377 24,12C24,18.623 18.623,24 12,24C5.377,24 0,18.623 0,12C0,5.377 5.377,0 12,0ZM3,12L21,12C21,7.033 16.967,3 12,3C7.033,3 3,7.033 3,12Z" transform="translate(5779.419608839327, 13504.812509648065) scale(2)"></path>
    <path d="M12,0C18.623,0 24,5.377 24,12C24,18.623 18.623,24 12,24C5.377,24 0,18.623 0,12C0,5.377 5.377,0 12,0ZM3,12L21,12C21,7.033 16.967,3 12,3C7.033,3 3,7.033 3,12Z" transform="translate(6507.843349888383, 11082.22769118887) scale(2)"></path>
    <path d="M12,0C18.623,0 24,5.377 24,12C24,18.623 18.623,24 12,24C5.377,24 0,18.623 0,12C0,5.377 5.377,0 12,0ZM3,12L21,12C21,7.033 16.967,3 12,3C7.033,3 3,7.033 3,12Z" transform="translate(5854.700634848664, 11375.449361653813) scale(2)"></path>
    <path d="M12,0C18.623,0 24,5.377 24,12C24,18.623 18.623,24 12,24C5.377,24 0,18.623 0,12C0,5.377 5.377,0 12,0ZM3,12L21,12C21,7.033 16.967,3 12,3C7.033,3 3,7.033 3,12Z" transform="translate(4715.2170649322325, 10340.613771575376) scale(2)"></path>
    <path d="M12,0C18.623,0 24,5.377 24,12C24,18.623 18.623,24 12,24C5.377,24 0,18.623 0,12C0,5.377 5.377,0 12,0ZM3,12L21,12C21,7.033 16.967,3 12,3C7.033,3 3,7.033 3,12Z" transform="translate(7272.359801133292, 9663.106400702376) scale(2)"></path>
    <path d="M12,0C18.623,0 24,5.377 24,12C24,18.623 18.623,24 12,24C5.377,24 0,18.623 0,12C0,5.377 5.377,0 12,0ZM3,12L21,12C21,7.033 16.967,3 12,3C7.033,3 3,7.033 3,12Z" transform="translate(5381.215168089789, 9241.080226610702) scale(2)"></path>
    <path d="M12,0C18.623,0 24,5.377 24,12C24,18.623 18.623,24 12,24C5.377,24 0,18.623 0,12C0,5.377 5.377,0 12,0ZM3,12L21,12C21,7.033 16.967,3 12,3C7.033,3 3,7.033 3,12Z" transform="translate(6727.8875287483115, 8271.843781736208) scale(2)"></path>
    <path d="M12,0C18.623,0 24,5.377 24,12C24,18.623 18.623,24 12,24C5.377,24 0,18.623 0,12C0,5.377 5.377,0 12,0ZM3,12L21,12C21,7.033 16.967,3 12,3C7.033,3 3,7.033 3,12Z" transform="translate(5686.444679215205, 8409.869840453315) scale(2)"></path>
    <path d="M12,0C18.623,0 24,5.377 24,12C24,18.623 18.623,24 12,24C5.377,24 0,18.623 0,12C0,5.377 5.377,0 12,0ZM3,12L21,12C21,7.033 16.967,3 12,3C7.033,3 3,7.033 3,12Z" transform="translate(5353.221848917119, 7282.124031934062) scale(2)"></path>
    <path d="M12,0C18.623,0 24,5.377 24,12C24,18.623 18.623,24 12,24C5.377,24 0,18.623 0,12C0,5.377 5.377,0 12,0ZM3,12L21,12C21,7.033 16.967,3 12,3C7.033,3 3,7.033 3,12Z" transform="translate(5350.625083361223, 6508.902739409548) scale(2)"></path>
    <path d="M12,0C18.623,0 24,5.377 24,12C24,18.623 18.623,24 12,24C5.377,24 0,18.623 0,12C0,5.377 5.377,0 12,0ZM3,12L21,12C21,7.033 16.967,3 12,3C7.033,3 3,7.033 3,12Z" transform="translate(3568.742741064659, 6427.423243990539) scale(2)"></path>
    <path d="M12,0C18.623,0 24,5.377 24,12C24,18.623 18.623,24 12,24C5.377,24 0,18.623 0,12C0,5.377 5.377,0 12,0ZM3,12L21,12C21,7.033 16.967,3 12,3C7.033,3 3,7.033 3,12Z" transform="translate(5276.155721415409, 5787.390370492142) scale(2)"></path>
    <path d="M12,0C18.623,0 24,5.377 24,12C24,18.623 18.623,24 12,24C5.377,24 0,18.623 0,12C0,5.377 5.377,0 12,0ZM3,12L21,12C21,7.033 16.967,3 12,3C7.033,3 3,7.033 3,12Z" transform="translate(5369.622964222073, 4545.143325505174) scale(2)"></path>
    <path d="M12,0C18.623,0 24,5.377 24,12C24,18.623 18.623,24 12,24C5.377,24 0,18.623 0,12C0,5.377 5.377,0 12,0ZM3,12L21,12C21,7.033 16.967,3 12,3C7.033,3 3,7.033 3,12Z" transform="translate(4103.226557070731, 4883.60600156843) scale(2)"></path>
    <path d="M12,0C18.623,0 24,5.377 24,12C24,18.623 18.623,24 12,24C5.377,24 0,18.623 0,12C0,5.377 5.377,0 12,0ZM3,12L21,12C21,7.033 16.967,3 12,3C7.033,3 3,7.033 3,12Z" transform="translate(3012.9136986728727, 4611.768826348627) scale(2)"></path>
  </g>
  <g id="Food Production" serif:id="Food Production">
    <path d="M1,21L12,2L23,21L1,21Z" transform="translate(5135.042026512598, 7756.015899198369) scale(2)"></path>
    <path d="M1,21L12,2L23,21L1,21Z" transform="translate(4771.679932364488, 8443.774935760996) scale(2)"></path>
    <path d="M1,21L12,2L23,21L1,21Z" transform="translate(5474.537887140179, 7407.3722758524245) scale(2)"></path>
    <path d="M1,21L12,2L23,21L1,21Z" transform="translate(6023.870819791553, 9806.695745064379) scale(2)"></path>
    <path d="M1,21L12,2L23,21L1,21Z" transform="translate(6728.332522055719, 7540.406428619219) scale(2)"></path>
    <path d="M1,21L12,2L23,21L1,21Z" transform="translate(8253.362116498003, 16459.149055809565) scale(2)"></path>
    <path d="M1,21L12,2L23,21L1,21Z" transform="translate(1130.0512092732324, 857.4860010455278) scale(2)"></path>
    <path d="M1,21L12,2L23,21L1,21Z" transform="translate(5934.414810529059, 7399.350743285601) scale(2)"></path>
    <path d="M1,21L12,2L23,21L1,21Z" transform="translate(-36150.987157128766, 138283.38951628763) scale(2)"></path>
    <path d="M1,21L12,2L23,21L1,21Z" transform="translate(-7237.080795069368, 63034.34751855201) scale(2)"></path>
    <path d="M1,21L12,2L23,21L1,21Z" transform="translate(5136.14553532256, 7316.8539667127825) scale(2)"></path>
    <path d="M1,21L12,2L23,21L1,21Z" transform="translate(6035.643678354445, 9107.945628673006) scale(2)"></path>
    <path d="M1,21L12,2L23,21L1,21Z" transform="translate(6024.19040377522, 9805.984493122793) scale(2)"></path>
    <path d="M1,21L12,2L23,21L1,21Z" transform="translate(6024.19040377522, 9805.984493122793) scale(2)"></path>
    <path d="M1,21L12,2L23,21L1,21Z" transform="translate(8366.635407686093, 11870.863718930947) scale(2)"></path>
    <path d="M1,21L12,2L23,21L1,21Z" transform="translate(7792.760010196546, 10915.831347698113) scale(2)"></path>
    <path d="M1,21L12,2L23,21L1,21Z" transform="translate(3488.925767035009, 7950.722761021294) scale(2)"></path>
    <path d="M1,21L12,2L23,21L1,21Z" transform="translate(6189.563576677145, 9806.044885390489) scale(2)"></path>
    <path d="M1,21L12,2L23,21L1,21Z" transform="translate(4214.320103670753, 6944.36947867953) scale(2)"></path>
    <path d="M1,21L12,2L23,21L1,21Z" transform="translate(6782.127993774402, 9689.919941784914) scale(2)"></path>
    <path d="M1,21L12,2L23,21L1,21Z" transform="translate(5629.177607010026, 8448.425140382507) scale(2)"></path>
    <path d="M1,21L12,2L23,21L1,21Z" transform="translate(5984.831223585348, 10067.11721710091) scale(2)"></path>
    <path d="M1,21L12,2L23,21L1,21Z" transform="translate(6786.02943588442, 9719.405136663077) scale(2)"></path>
    <path d="M1,21L12,2L23,21L1,21Z" transform="translate(6177.770438167956, 8924.60878469086) scale(2)"></path>
    <path d="M1,21L12,2L23,21L1,21Z" transform="translate(4775.200251343229, 7433.18355561991) scale(2)"></path>
    <path d="M1,21L12,2L23,21L1,21Z" transform="translate(5745.09335190935, 6963.762593653565) scale(2)"></path>
    <path d="M1,21L12,2L23,21L1,21Z" transform="translate(7470.969708325686, 10051.612049938134) scale(2)"></path>
    <path d="M1,21L12,2L23,21L1,21Z" transform="translate(7234.110656632574, 13485.29297769891) scale(2)"></path>
    <path d="M1,21L12,2L23,21L1,21Z" transform="translate(4245.615091365267, 7516.102452240609) scale(2)"></path>
    <path d="M1,21L12,2L23,21L1,21Z" transform="translate(4827.222509813827, 7362.113434195823) scale(2)"></path>
    <path d="M1,21L12,2L23,21L1,21Z" transform="translate(4984.249435792741, 10217.916084003917) scale(2)"></path>
    <path d="M1,21L12,2L23,21L1,21Z" transform="translate(6817.199946665939, 9727.406016951858) scale(2)"></path>
    <path d="M1,21L12,2L23,21L1,21Z" transform="translate(7007.099267207727, 9556.601350824152) scale(2)"></path>
    <path d="M1,21L12,2L23,21L1,21Z" transform="translate(4975.089193778351, 7370.300497900984) scale(2)"></path>
    <path d="M1,21L12,2L23,21L1,21Z" transform="translate(5158.468861193834, 7154.9879820481365) scale(2)"></path>
    <path d="M1,21L12,2L23,21L1,21Z" transform="translate(6781.282063594461, 9723.601304079652) scale(2)"></path>
    <path d="M1,21L12,2L23,21L1,21Z" transform="translate(6695.312340297306, 11197.431418025579) scale(2)"></path>
    <path d="M1,21L12,2L23,21L1,21Z" transform="translate(6611.666419138461, 9685.163659552993) scale(2)"></path>
    <path d="M1,21L12,2L23,21L1,21Z" transform="translate(6993.94690608137, 8737.321723149553) scale(2)"></path>
    <path d="M1,21L12,2L23,21L1,21Z" transform="translate(6332.535101156171, 7908.761712683312) scale(2)"></path>
    <path d="M1,21L12,2L23,21L1,21Z" transform="translate(5787.780774343537, 10539.421988083479) scale(2)"></path>
    <path d="M1,21L12,2L23,21L1,21Z" transform="translate(6795.814393490318, 9717.618401693078) scale(2)"></path>
    <path d="M1,21L12,2L23,21L1,21Z" transform="translate(6244.342742349502, 8946.179463352379) scale(2)"></path>
    <path d="M1,21L12,2L23,21L1,21Z" transform="translate(7234.861014651172, 13483.538159885968) scale(2)"></path>
    <path d="M1,21L12,2L23,21L1,21Z" transform="translate(6793.129048858306, 10422.718154864055) scale(2)"></path>
    <path d="M1,21L12,2L23,21L1,21Z" transform="translate(5161.511086262511, 8761.556858600983) scale(2)"></path>
    <path d="M1,21L12,2L23,21L1,21Z" transform="translate(7160.290952281272, 8494.350800291524) scale(2)"></path>
    <path d="M1,21L12,2L23,21L1,21Z" transform="translate(6004.31465764653, 8075.920625897651) scale(2)"></path>
    <path d="M1,21L12,2L23,21L1,21Z" transform="translate(4783.589855393056, 8432.049761319307) scale(2)"></path>
    <path d="M1,21L12,2L23,21L1,21Z" transform="translate(7150.444455527432, 10104.868955663542) scale(2)"></path>
    <path d="M1,21L12,2L23,21L1,21Z" transform="translate(5426.849709637014, 8856.18152903865) scale(2)"></path>
    <path d="M1,21L12,2L23,21L1,21Z" transform="translate(5806.037155093832, 10519.37989091554) scale(2)"></path>
    <path d="M1,21L12,2L23,21L1,21Z" transform="translate(7444.214864502821, 9790.213975477662) scale(2)"></path>
    <path d="M1,21L12,2L23,21L1,21Z" transform="translate(6001.262176053031, 10085.823174457593) scale(2)"></path>
    <path d="M1,21L12,2L23,21L1,21Z" transform="translate(7383.268264084447, 11264.763790024432) scale(2)"></path>
    <path d="M1,21L12,2L23,21L1,21Z" transform="translate(6229.356095032822, 8974.243718914026) scale(2)"></path>
    <path d="M1,21L12,2L23,21L1,21Z" transform="translate(4337.748286660785, 7153.850855098704) scale(2)"></path>
    <path d="M1,21L12,2L23,21L1,21Z" transform="translate(4793.317469702347, 7975.337773224751) scale(2)"></path>
    <path d="M1,21L12,2L23,21L1,21Z" transform="translate(6172.676908171859, 11476.459653901213) scale(2)"></path>
    <path d="M1,21L12,2L23,21L1,21Z" transform="translate(6117.460907791084, 8458.621420417285) scale(2)"></path>
    <path d="M1,21L12,2L23,21L1,21Z" transform="translate(6511.686050084683, 14014.070464439776) scale(2)"></path>
    <path d="M1,21L12,2L23,21L1,21Z" transform="translate(3655.939517673033, 7427.37463303071) scale(2)"></path>
  </g>
  <g id="Food Incubators/ Culinary Institutes/Kitchens" serif:id="Food Incubators/ Culinary Institutes/Kitchens">
    <path d="M14,9L14,15L19,15L19,19L14,19L14,24L10,24L10,19L5,19L5,15L10,15L10,9L5,9L5,5L10,5L10,0L14,0L14,5L19,5L19,9L14,9Z" transform="translate(4999.309743604338, 7520.137156391924) scale(2)"></path>
    <path d="M14,9L14,15L19,15L19,19L14,19L14,24L10,24L10,19L5,19L5,15L10,15L10,9L5,9L5,5L10,5L10,0L14,0L14,5L19,5L19,9L14,9Z" transform="translate(5896.1628687944485, 9757.402512170014) scale(2)"></path>
    <path d="M14,9L14,15L19,15L19,19L14,19L14,24L10,24L10,19L5,19L5,15L10,15L10,9L5,9L5,5L10,5L10,0L14,0L14,5L19,5L19,9L14,9Z" transform="translate(6402.364551218321, 10761.015612702304) scale(2)"></path>
    <path d="M14,9L14,15L19,15L19,19L14,19L14,24L10,24L10,19L5,19L5,15L10,15L10,9L5,9L5,5L10,5L10,0L14,0L14,5L19,5L19,9L14,9Z" transform="translate(6358.011842147384, 10731.042898895274) scale(2)"></path>
    <path d="M14,9L14,15L19,15L19,19L14,19L14,24L10,24L10,19L5,19L5,15L10,15L10,9L5,9L5,5L10,5L10,0L14,0L14,5L19,5L19,9L14,9Z" transform="translate(6301.045705699375, 10743.735601275204) scale(2)"></path>
  </g>
  <g id="Corporations" serif:id="Corporations">
    <path d="M12,0A12,12,0,1,1,0,12,12,12,0,0,1,12,0ZM12,5A7,7,0,1,0,19,12,7,7,0,0,0,12,5Z" transform="translate(6269.981256706708, 7431.7948463733355) scale(2)"></path>
    <path d="M12,0A12,12,0,1,1,0,12,12,12,0,0,1,12,0ZM12,5A7,7,0,1,0,19,12,7,7,0,0,0,12,5Z" transform="translate(6194.2934662543685, 7525.980186531271) scale(2)"></path>
    <path d="M12,0A12,12,0,1,1,0,12,12,12,0,0,1,12,0ZM12,5A7,7,0,1,0,19,12,7,7,0,0,0,12,5Z" transform="translate(6542.338140166563, 7744.3301518330045) scale(2)"></path>
    <path d="M12,0A12,12,0,1,1,0,12,12,12,0,0,1,12,0ZM12,5A7,7,0,1,0,19,12,7,7,0,0,0,12,5Z" transform="translate(6937.625765171166, 7482.121631913366) scale(2)"></path>
    <path d="M12,0A12,12,0,1,1,0,12,12,12,0,0,1,12,0ZM12,5A7,7,0,1,0,19,12,7,7,0,0,0,12,5Z" transform="translate(6701.254597706905, 7550.465339713192) scale(2)"></path>
    <path d="M12,0A12,12,0,1,1,0,12,12,12,0,0,1,12,0ZM12,5A7,7,0,1,0,19,12,7,7,0,0,0,12,5Z" transform="translate(6115.49981366024, 6748.796472829035) scale(2)"></path>
    <path d="M12,0A12,12,0,1,1,0,12,12,12,0,0,1,12,0ZM12,5A7,7,0,1,0,19,12,7,7,0,0,0,12,5Z" transform="translate(6866.333361731515, 7336.0339877264505) scale(2)"></path>
    <path d="M12,0A12,12,0,1,1,0,12,12,12,0,0,1,12,0ZM12,5A7,7,0,1,0,19,12,7,7,0,0,0,12,5Z" transform="translate(5644.41204263794, 7422.155552021264) scale(2)"></path>
    <path d="M12,0A12,12,0,1,1,0,12,12,12,0,0,1,12,0ZM12,5A7,7,0,1,0,19,12,7,7,0,0,0,12,5Z" transform="translate(6223.33085301456, 7677.383289025684) scale(2)"></path>
  </g>
</svg>
