<?xml version="1.0" encoding="UTF-8" standalone="no"?>
<!DOCTYPE svg PUBLIC "-//W3C//DTD SVG 1.1//EN" "http://www.w3.org/Graphics/SVG/1.1/DTD/svg11.dtd">
<svg width="100%" height="100%" viewBox="0 0 24 24" version="1.1" xmlns="http://www.w3.org/2000/svg" xmlns:xlink="http://www.w3.org/1999/xlink" xml:space="preserve" xmlns:serif="http://www.serif.com/" style="fill-rule:evenodd;clip-rule:evenodd;stroke-linejoin:round;stroke-miterlimit:2;">
    <g id="Square" transform="matrix(1,0,0,1,-1,-1)">
        <rect x="2" y="2" width="22" height="22" style="fill:rgb(61,96,172);"/>
    </g>
    <path id="Half" d="M24,24L0,24L0,0L24,0L24,24ZM3,21L21,3L3,3L3,21Z" style="fill:rgb(188,77,156);"/>
    <circle id="Circle" cx="12" cy="12" r="12" style="fill:rgb(61,96,172);"/>
    <path id="Plus" d="M0,9L9,9L9,0L15,0L15,9L24,9L24,15L15,15L15,24L9,24L9,15L0,15L0,9Z" style="fill:rgb(254,189,41);"/>
    <path id="Triangle" d="M0,22L12,2L24,22L0,22Z" style="fill:rgb(157,203,59);"/>
    <path id="X" d="M4,0L12,8L20,0L24,4L16,12L24,20L20,24L12,16L4,24L0,20L8,12L0,4L4,0Z" style="fill:rgb(102,29,84);"/>
    <path id="Double-Plus" serif:id="Double Plus" d="M14,9L14,15L19,15L19,19L14,19L14,24L10,24L10,19L5,19L5,15L10,15L10,9L5,9L5,5L10,5L10,0L14,0L14,5L19,5L19,9L14,9Z" style="fill:rgb(89,186,71);"/>
    <path id="HalfTall" d="M24,0L24,24L0,24L0,0L24,0ZM12,3L3,3L3,21L12,21L12,3Z" style="fill:rgb(102,29,84);"/>
    <path id="HalfCircle" d="M12,0C18.623,0 24,5.377 24,12C24,18.623 18.623,24 12,24C5.377,24 0,18.623 0,12C0,5.377 5.377,0 12,0ZM3,12L21,12C21,7.033 16.967,3 12,3C7.033,3 3,7.033 3,12Z" style="fill:rgb(102,29,84);"/>
    <path id="Asterisk" d="M10,8.536L10,0L14,0L14,8.536L21.392,4.268L23.392,7.732L16,12L23.392,16.268L21.392,19.732L14,15.464L14,24L10,24L10,15.464L2.608,19.732L0.608,16.268L8,12L0.608,7.732L2.608,4.268L10,8.536Z" style="fill:rgb(102,29,84);"/>
</svg>
